# xmcd
#
# Track frame offsets: 
#        150
#        24560
#        59337
#        87512
#        114005
#        144340
#        171317
#        207090
#        237912
#
# Disc length: 3523 seconds
#
# Revision: 1
# Processed by: cddbd v1.5.2PL0 Copyright (c) Steve Scherf et al.
# Submitted via: ExactAudioCopyFreeDBPlugin 1.0
#
DISCID=720dc109
DTITLE=Various Artist - Trucker and Country Party Hit Mix  [CD1)
DYEAR=2002
DGENRE=Country
TTITLE0=Medley No.1 - Let's Go To Nashville (Nashville Cowboys) - Lone
TTITLE0=Star State Of Mind (Gudrun Lange and Kactus) - On The Road Agai
TTITLE0=n (Willie Nelson) - Oh Lonesome Me (Don Gibson)
TTITLE1=Medley No.2 - Hallo Guten Morgen Deutschland (Sammy's Saloon) 
TTITLE1=_ Country Music (Western Starlights) - Sie ist ein ehrbares Mä
TTITLE1=dchen "Good Hearted Woman" (Andre Lamberz and Hills Angels) - Ic
TTITLE1=h war noch nie in Kansas City (Olivia Winter)
TTITLE2=Medley No.3 - Talk To Me (Honky Tonk Heroes) -  L.A. Internati
TTITLE2=onal Airport (Susan Raye) - Folsom Prison Blues (Johnny Cash) 
TTITLE2=_ The Fighting Side Of Me (Merle Haggard)
TTITLE3=Medley No.4 - Hey Driver (Oliver Freytag) - Country Music (Lon
TTITLE3=e Star) - Komm' unter meine Decke (Gunter Gabriel) - Einen Tru
TTITLE3=cker legst du niemals an die Leine (Little Ma and Cissy)
TTITLE4=Medley No.5 - I Walk The Line (Johnny Cash) - Country Guitar N
TTITLE4=o.1 (Sammy's Saloon) - That Summer (The Red Necks) -  She's No
TTITLE4=t That Cheatin' Kind (Bill Brown)
TTITLE5=Medley No.6 - I und der Niedermeier "Ring Of Fire" (Black Bott
TTITLE5=om Skiffle Group) - Ruby (Andre Lamberz and Hills Angels) - Ohne
TTITLE5=moos nichts los (Gunter Gabriel) -  Dankwart und Leila (Sammy
TTITLE5='s Saloon)
TTITLE6=Medley No.7 - Oklahoma Morning (Charley Pride) - Southern Stat
TTITLE6=es Of Dixie (Honky Tonk Heroes) -  Rawhide (Frankie Laine) -  
TTITLE6=Blanket On The Ground (Billie Joe Spears)
TTITLE7=Medley No.8 - Mädchen ab 30 (Sammy's Saloon) - Rheinhausen du 
TTITLE7=darfst nicht untergeh'n (Gunter Gabriel) - Auf der Autobahn "O
TTITLE7=n The Road Again" (Andre Lamberz and Hills Angels) - Truckerfest
TTITLE7=e (Little Ma and Cissy)
TTITLE8=Medley No.9 - I'm Moving On ( Gudrun Lange and Kactus) -  No One
TTITLE8=Else On Earth ( Sammy Brown) -  Love's Gonna Live Here (Kactu
TTITLE8=s)
EXTD=YEAR: 2002
EXTT0=
EXTT1=
EXTT2=
EXTT3=
EXTT4=
EXTT5=
EXTT6=
EXTT7=
EXTT8=
PLAYORDER=
